<?xml version="1.0" encoding="UTF-8"?>
<svg id="Layer_1" data-name="Layer 1" xmlns="http://www.w3.org/2000/svg" viewBox="0 0 984.12 339.17">
  <defs>
    <style>
      .cls-1 {
        fill: #ffbb24;
        stroke-width: 0px;
      }
    </style>
  </defs>
  <g>
    <path class="cls-1" d="M279.73,127.26c-2.5-.64-5-1.27-7.5-1.89-13.51-17.96-26.98-35.67-40.4-53.13,11.81-5.68,20.93-12.3,27.35-20.08,3.71-4.5,6.54-9.5,8.52-15.06,1.95-5.55,2.95-11.46,2.95-17.79,0-6.29-.97-11.73-2.89-16.29-6.56-15.01-26.98-19.36-60.87-10.72-17.42,4.47-34.77,9.36-52.02,14.67v9.14c5.43-.84,10.86-1.65,16.3-2.41v138.78c-5.44,2.41-10.88,4.86-16.3,7.36v9.14c17.15-5.28,34.4-10.14,51.72-14.59,0-3.05,0-6.09,0-9.14-5.31.54-10.61,1.12-15.9,1.73v-61.75c7.28-1.98,14.57-3.89,21.88-5.73,15.13,20.65,30.31,41.62,45.55,62.9,12.22-2.55,24.48-4.89,36.76-7.04v-9.14c-5.05.31-10.1.66-15.14,1.04ZM190.69,73.62V9.61c5.74-1.56,11.5-3.08,17.26-4.56,15.72-4.01,26.91-3.86,33.52,0,3.18,1.88,5.46,4.56,6.83,8.06,1.34,3.5,2.03,7.63,2.03,12.39,0,4.77-.76,9.36-2.25,13.75-4.85,14.62-18.81,24.36-41.71,30.22-5.24,1.35-10.47,2.73-15.69,4.16Z"/>
    <path class="cls-1" d="M297.55,114.05c-6.98-6.03-12.28-13.6-15.89-22.77-3.61-9.17-5.41-18.78-5.41-28.84,0-10.06,1-19.15,3-27.26,2-8.11,4.77-15.68,8.31-22.7,3.54-7.01,7.8-13.46,12.78-19.32,4.98-5.86,10.45-10.98,16.4-15.33,12.13-8.89,25.14-14.22,39.05-15.88,13.9-1.66,25.99-.83,36.24,2.32,10.25,3.15,18.89,8.1,25.91,14.73,14.25,13.49,21.38,32.13,21.38,55.53,0,26.09-8,47.64-23.98,65.16-7.37,8.09-15.96,14.57-25.74,19.53-9.78,4.96-20.71,8.11-32.78,9.54-12.07,1.43-23.22.87-33.45-1.76-10.24-2.63-18.84-6.9-25.82-12.94ZM301.21,23.84c-2.83,8.57-4.24,16.73-4.24,24.46,0,7.73.57,14.58,1.72,20.54,1.14,5.96,2.85,11.49,5.11,16.59,2.26,5.1,5.09,9.7,8.5,13.82,3.41,4.12,7.37,7.51,11.9,10.21,9.63,5.74,20.99,7.76,34.1,6.22,17.94-2.1,32.56-9.46,43.84-22.45,11.06-12.75,16.59-28.57,16.59-47.7,0-21.05-4.81-38.28-14.42-51.51-10.98-15.12-27.02-21.75-48.06-19.25-17.36,2.07-31.66,10.79-42.92,25.82-5.24,6.91-9.27,14.68-12.1,23.24Z"/>
    <path class="cls-1" d="M417.62-41.29c19.63-1.28,39.29-2.05,58.95-2.31,0,3.04,0,6.09,0,9.13-6.26.91-12.53,1.87-18.79,2.88,13.18,23.42,26.36,47.06,39.54,70.93,11.3-23.76,22.59-47.35,33.89-70.78-5.97-1.03-11.95-2.01-17.92-2.94v-9.13c16.8.31,33.59.99,50.37,2.04v9.13c-5.57.33-11.14.7-16.71,1.12-14.25,27.64-28.52,55.55-42.79,83.72v54.25c6.3.89,12.6,1.83,18.9,2.83v9.13c-19.22-.52-38.46-.56-57.68-.11v-9.13c6.19-.97,12.38-1.89,18.57-2.75,0-18.05,0-36.09,0-54.14-17.16-28.09-34.33-55.8-51.47-83.13-4.96-.57-9.91-1.1-14.86-1.6,0-3.04,0-6.09,0-9.13Z"/>
    <path class="cls-1" d="M651.26,120.25c4.96-.13,9.92-.22,14.87-.29-5.67-14.8-11.35-29.56-17.03-44.27-21.57-2.98-43.21-5.35-64.88-7.09-5.67,13.47-11.34,26.99-17.02,40.54,5.1,1.16,10.19,2.35,15.29,3.58v9.13c-15.5-1.23-31.01-2.14-46.54-2.73v-9.13c5.72-.6,11.44-1.17,17.15-1.69,18.99-45.46,37.96-90.46,56.9-134.98-1.51-3.7-3.03-7.4-4.54-11.1,5.84-1.85,11.69-3.66,17.52-5.43,21.55,54.93,43.04,110.48,64.45,166.64,5.77,1.82,11.53,3.69,17.28,5.59,0,3.04,0,6.09,0,9.13-17.76-3.35-35.58-6.28-53.45-8.78v-9.13ZM589.31,56.02c18.38,1.56,36.73,3.57,55.04,6.03-9.17-24.22-18.35-48.32-27.55-72.32-9.16,21.99-18.32,44.08-27.49,66.29Z"/>
    <path class="cls-1" d="M772.34-8.93V.2c-5.31-.51-10.62-.99-15.94-1.43,0,45.83,0,91.66,0,137.5,19.44,4.6,38.79,9.72,58.02,15.36,2.07-7.41,4.14-14.82,6.21-22.22,2.88.86,5.75,1.73,8.62,2.61-.32,12.22-.63,24.44-.95,36.66-35.7-10.95-71.81-20.12-108.19-27.5v-9.13c5.42.28,10.84.59,16.24.95,0-46.26,0-92.52,0-138.79-5.41-2-10.82-3.97-16.24-5.89v-9.13c17.47,3.55,34.89,7.5,52.22,11.87Z"/>
  </g>
  <g>
    <path class="cls-1" d="M98.91,237.3c0,4.48-.79,8.36-2.37,11.63-1.58,3.27-3.55,6.09-5.9,8.44-4.19,4.08-9.42,7.29-15.68,9.65,10.11,1.95,17.52,4.97,22.23,9.05,6.43,5.63,9.65,14.02,9.65,25.16,0,9.99-3.85,18.29-11.55,24.9-8.44,7.29-20.28,10.94-35.5,10.94H0v-7.32c4.37-.66,8.73-1.32,13.1-1.98v-111.32C8.73,215.79,4.37,215.13,0,214.47v-7.32c19.16,0,38.31,0,57.47,0,13.56,0,23.95,2.76,31.19,8.27,6.84,5.17,10.25,12.46,10.25,21.88ZM29.29,217.57v46.44h24.56c12.18,0,20.68-4.14,25.5-12.41,1.84-3.1,2.76-7.07,2.76-11.89,0-7.7-2.13-13.31-6.38-16.84-4.25-3.53-11-5.3-20.25-5.3h-26.19ZM29.29,273.4v53.33h24.38c19.07,0,30.61-5.2,34.64-15.59,1.26-3.27,1.9-6.85,1.9-10.73,0-3.88-.68-7.44-2.02-10.68-1.35-3.25-3.37-6.07-6.07-8.49-5.86-5.23-13.93-7.84-24.21-7.84h-28.6Z"/>
    <path class="cls-1" d="M166.21,274.78h-31.71v51.95h47.99c2.07-5.08,4.14-10.17,6.2-15.25h6.55c-.95,8.53-1.9,17.06-2.84,25.59h-87.19v-7.32c4.37-.66,8.73-1.32,13.1-1.98v-111.32c-4.37-.66-8.73-1.32-13.1-1.98v-7.32c27.8,0,55.6,0,83.4,0,.66,8.53,1.32,17.06,1.98,25.59h-7.58c-1.55-5.05-3.1-10.11-4.65-15.16h-43.85v46.87h31.71c.86-3.04,1.72-6.09,2.58-9.13,2.04,0,4.08,0,6.12,0v28.52h-6.12c-.86-3.02-1.72-6.03-2.58-9.05Z"/>
    <path class="cls-1" d="M265.76,315.79c13.15-33.11,26.31-66.23,39.46-99.34-4.28-.66-8.56-1.32-12.84-1.98v-7.32c11.32,0,22.63,0,33.95,0v7.32c-3.25.55-6.49,1.09-9.74,1.64-16,40.32-31.99,80.64-47.99,120.97h-9.31c-16.51-40.21-33.03-80.41-49.54-120.62-3.42-.66-6.84-1.32-10.25-1.98,0-2.44,0-4.88,0-7.32,13.3,0,26.59,0,39.89,0,0,2.44,0,4.88,0,7.32-4.42.66-8.85,1.32-13.27,1.98,13.21,33.11,26.42,66.23,39.63,99.34Z"/>
    <path class="cls-1" d="M397.61,274.78h-31.71v51.95h47.99c2.07-5.08,4.14-10.17,6.2-15.25h6.55c-.95,8.53-1.9,17.06-2.84,25.59h-87.19v-7.32c4.37-.66,8.73-1.32,13.1-1.98,0-37.11,0-74.21,0-111.32-4.37-.66-8.73-1.32-13.1-1.98v-7.32c27.8,0,55.6,0,83.4,0,.66,8.53,1.32,17.06,1.98,25.59h-7.58c-1.55-5.05-3.1-10.11-4.65-15.16h-43.85v46.87h31.71c.86-3.04,1.72-6.09,2.58-9.13,2.04,0,4.08,0,6.12,0,0,9.51,0,19.01,0,28.52h-6.12c-.86-3.02-1.72-6.03-2.58-9.05Z"/>
    <path class="cls-1" d="M535.8,328.37c-2.01-.89-4.02-1.78-6.03-2.67-10.87-16.5-21.75-33-32.62-49.5,9.58-2.4,16.93-6.15,22.11-11.32,2.99-2.99,5.27-6.54,6.84-10.69,1.59-4.14,2.38-8.72,2.38-13.77,0-5.07-.78-9.58-2.33-13.53-5.29-13.16-21.69-19.73-49.19-19.73h-42.5c0,2.44,0,4.89,0,7.33,4.45.65,8.9,1.31,13.36,1.96,0,37.11,0,74.22,0,111.34-4.45.65-8.9,1.31-13.36,1.96,0,2.44,0,4.89,0,7.33h42.23c0-2.44,0-4.89,0-7.33-4.31-.65-8.61-1.31-12.92-1.96v-49.55c5.93,0,11.86,0,17.79,0,12.28,19.61,24.56,39.23,36.83,58.84h29.56v-7.33c-4.05-.46-8.1-.91-12.16-1.37ZM476.51,268.91h-12.74v-51.34h14.04c12.74,0,21.79,2.16,27.13,6.47,2.6,2.06,4.44,4.61,5.51,7.67,1.1,3.04,1.64,6.47,1.64,10.29,0,3.82-.61,7.35-1.81,10.64-3.9,10.86-15.17,16.27-33.77,16.27Z"/>
    <path class="cls-1" d="M649.01,329.75c3.96-.66,7.93-1.32,11.89-1.98-4.54-11.17-9.08-22.34-13.61-33.52h-51.69c-4.51,11.17-9.02,22.34-13.53,33.52,4.05.66,8.1,1.32,12.15,1.98v7.32h-36.96v-7.32c4.54-.66,9.08-1.32,13.61-1.98,15.08-37.28,30.16-74.56,45.23-111.83-1.21-2.84-2.41-5.69-3.62-8.53,4.65-1.95,9.31-3.91,13.96-5.86,17.17,42.07,34.35,84.15,51.52,126.22,4.62.66,9.25,1.32,13.87,1.98v7.32h-42.82v-7.32ZM599.64,283.83h43.85c-7.32-18.44-14.65-36.88-21.97-55.31-7.29,18.44-14.59,36.88-21.88,55.31Z"/>
    <path class="cls-1" d="M751.16,278.57h50.92v9.31h-4.82c-1.72,0-3.03.27-3.92.82-.89.55-1.34,1.56-1.34,3.06v37.22c-4.14,0-8.73.86-13.79,2.58-3.68,1.21-7.35,2.41-11.03,3.62-8.21,2.58-17.07,3.88-26.58,3.88-9.51,0-18.5-1.71-26.97-5.13-8.47-3.42-15.7-8.08-21.67-14-5.97-5.92-10.58-12.87-13.83-20.85-3.24-7.98-4.87-16.01-4.87-24.08,0-8.07.85-15.18,2.54-21.32,1.69-6.15,4.06-11.75,7.11-16.8,3.04-5.05,6.68-9.55,10.9-13.48,4.22-3.93,8.86-7.25,13.91-9.95,10.4-5.51,21.71-8.27,33.95-8.27,18.9,0,33.89,2.93,44.97,8.79-.66,7.09-1.32,14.19-1.98,21.28h-5.69c0-5.28-3.27-9.79-9.82-13.53-7.24-4.14-16.54-6.2-27.92-6.2-14.76,0-27.02,5.31-36.79,15.94-9.53,10.34-14.3,22.89-14.3,37.65,0,16.2,4.48,29.98,13.44,41.36,9.65,12.18,22.66,18.27,39.03,18.27,18.04,0,28.66-3.88,31.88-11.63.98-2.41,1.46-5.03,1.46-7.84v-17.49c0-1.55-.45-2.58-1.34-3.1-.89-.52-2.08-.78-3.58-.78h-19.9v-9.31Z"/>
    <path class="cls-1" d="M861.07,274.78h-31.71v51.95h47.99c2.07-5.08,4.14-10.17,6.2-15.25h6.55c-.95,8.53-1.9,17.06-2.84,25.59h-87.19v-7.32c4.37-.66,8.73-1.32,13.1-1.98v-111.32c-4.37-.66-8.73-1.32-13.1-1.98v-7.32c27.8,0,55.6,0,83.4,0,.66,8.53,1.32,17.06,1.98,25.59h-7.58c-1.55-5.05-3.1-10.11-4.65-15.16h-43.85v46.87h31.71c.86-3.04,1.72-6.09,2.58-9.13,2.04,0,4.08,0,6.12,0v28.52h-6.12c-.86-3.02-1.72-6.03-2.58-9.05Z"/>
    <path class="cls-1" d="M938.97,328.8c4.25,0,8.11-.42,11.59-1.25,3.48-.83,6.48-2.14,9-3.92,5.4-3.73,8.1-9.19,8.1-16.37,0-6.09-1.98-11.09-5.94-14.99-4.19-4.02-10.99-8.08-20.38-12.19-9.39-4.11-16.54-7.78-21.45-11.03-4.91-3.25-8.77-6.53-11.59-9.87-5.11-5.86-7.67-12.95-7.67-21.28,0-9.65,4.16-17.61,12.49-23.87,7.75-5.92,17.15-8.87,28.17-8.87,8.67,0,17.35,1.58,26.02,4.74,3.62,1.44,6.89,3.02,9.82,4.74-1.01,7.67-2.01,15.34-3.02,23h-7.24c0-7.93-2.15-13.68-6.46-17.27-4.31-3.59-10.54-5.38-18.7-5.38-11.26,0-18.95,3.68-23.09,11.03-1.32,2.41-1.98,5.11-1.98,8.1,0,2.99.43,5.67,1.29,8.06.86,2.38,2.53,4.72,5,7.02,4.82,4.65,13.9,9.76,27.23,15.34,18.61,7.93,29.47,17.29,32.57,28.09.92,3.39,1.38,6.99,1.38,10.81,0,3.82-.65,7.44-1.94,10.86-1.29,3.42-3.06,6.46-5.3,9.13-2.24,2.67-4.84,4.98-7.8,6.94-2.96,1.95-6.1,3.56-9.43,4.82-14.76,5.74-30.27,5.28-46.53-1.38-5.92-2.47-11.14-5.49-15.68-9.05,1.21-8.24,2.41-16.48,3.62-24.73h7.32c0,11.55,3.65,19.59,10.94,24.12,5,3.1,11.55,4.65,19.64,4.65Z"/>
  </g>
</svg>